<?xml version="1.0" encoding="utf-8"?>
<!-- Generator: Adobe Illustrator 19.0.0, SVG Export Plug-In . SVG Version: 6.00 Build 0)  -->
<svg version="1.1" id="Layer_1" xmlns="http://www.w3.org/2000/svg" xmlns:xlink="http://www.w3.org/1999/xlink" x="0px" y="0px"
	 viewBox="1286 276.9 329.6 158.1" style="enable-background:new 1286 276.9 329.6 158.1;" xml:space="preserve">
<style type="text/css">
	.st0{fill:url(#SVGID_1_);}
	.st1{fill:url(#SVGID_2_);}
	.st2{fill:url(#SVGID_3_);}
	.st3{fill:url(#SVGID_4_);}
	.st4{fill:url(#SVGID_5_);}
	.st5{fill:url(#SVGID_6_);}
	.st6{fill:url(#SVGID_7_);}
	.st7{fill:url(#SVGID_8_);}
	.st8{fill:url(#SVGID_9_);}
	.st9{fill:url(#SVGID_10_);}
	.st10{fill:url(#SVGID_11_);}
	.st11{fill:url(#SVGID_12_);}
	.st12{fill:url(#SVGID_13_);}
	.st13{fill:url(#SVGID_14_);}
	.st14{fill:url(#SVGID_15_);}
	.st15{fill:url(#SVGID_16_);}
	.st16{fill:url(#SVGID_17_);}
	.st17{fill:url(#SVGID_18_);}
	.st18{fill:url(#SVGID_19_);}
	.st19{fill:url(#SVGID_20_);}
	.st20{fill:url(#SVGID_21_);}
	.st21{fill:url(#SVGID_22_);}
	.st22{fill:url(#SVGID_23_);}
	.st23{fill:url(#SVGID_24_);}
	.st24{fill:url(#SVGID_25_);}
</style>
<g>
	
		<radialGradient id="SVGID_1_" cx="1369.4243" cy="368.7065" r="6.5783" gradientTransform="matrix(1 0 0 -1 0 795)" gradientUnits="userSpaceOnUse">
		<stop  offset="0" style="stop-color:#F1E285"/>
		<stop  offset="1.089346e-02" style="stop-color:#F0E184"/>
		<stop  offset="1" style="stop-color:#B79346"/>
	</radialGradient>
	<path class="st0" d="M1364.3,422.3v-1c0-0.5-0.3-0.9-0.7-0.9c-0.1,0-0.4,0-0.6,0s-0.3-0.1-0.3-0.2c0-0.1,0.1-0.1,0.4-0.1h2.9
		c0.1,0,0.2,0,0.3,0h1h1.6h0.8c0.7,0,1.2,0.1,1.8,0.2c0.6,0.1,1.2,0.3,1.7,0.6c0.6,0.3,1.1,0.7,1.5,1.1c0.5,0.5,0.8,1.1,1.1,1.7
		c0.3,0.8,0.5,1.6,0.5,2.5c0,1-0.2,1.9-0.5,2.7c-0.3,0.7-0.7,1.4-1.3,1.9c-0.2,0.2-0.5,0.4-0.8,0.6c-0.4,0.2-0.7,0.5-1.1,0.6
		c-0.5,0.2-1,0.4-1.6,0.5c-0.6,0.1-1.3,0.2-2.1,0.2c-0.3,0-0.6,0-0.9,0c-0.2,0-0.6,0-1-0.1l-1-0.1c-0.3,0-0.6,0-0.7,0h-0.4
		c-0.2,0-0.4,0-0.6,0h-1.1c-0.2,0-0.3-0.1-0.3-0.2c0-0.1,0.1-0.1,0.3-0.1c0.2,0,0.4,0,0.6-0.1c0.2,0,0.4-0.3,0.5-0.9
		c0-0.3,0.1-0.8,0.1-1.5c0-0.3,0-0.6,0-1L1364.3,422.3L1364.3,422.3z M1366.4,426.6c0,1.8,0,2.9,0,3.4v0.7c0,0.1,0,0.2,0,0.3
		s0,0.2,0.1,0.2c0.1,0.2,0.4,0.3,0.7,0.5c0.4,0.1,0.9,0.2,1.5,0.2c1.6,0,2.9-0.4,3.8-1.2c0.5-0.4,0.9-1,1.1-1.8
		c0.2-0.6,0.3-1.4,0.3-2.4s-0.2-1.8-0.5-2.6c-0.3-0.6-0.6-1.1-1.1-1.5c-0.4-0.3-0.8-0.6-1.2-0.9c-0.4-0.2-0.8-0.4-1.2-0.5
		c-0.4-0.1-0.8-0.2-1.2-0.2c-0.3,0-0.7,0-1.1,0c-0.2,0-0.4,0-0.6,0s-0.4,0-0.5,0.1c-0.1,0.1-0.2,0.2-0.2,0.3c0,0.3,0,0.7,0,1.4
		L1366.4,426.6L1366.4,426.6z"/>
	
		<radialGradient id="SVGID_2_" cx="1384.3911" cy="368.7837" r="4.8287" gradientTransform="matrix(1 0 0 -1 0 795)" gradientUnits="userSpaceOnUse">
		<stop  offset="0" style="stop-color:#F1E285"/>
		<stop  offset="1.089346e-02" style="stop-color:#F0E184"/>
		<stop  offset="1" style="stop-color:#B79346"/>
	</radialGradient>
	<path class="st1" d="M1383.2,422.3v-1c0-0.5-0.2-0.9-0.6-0.9c-0.2,0-0.4-0.1-0.6-0.1s-0.3-0.1-0.3-0.2c0-0.1,0.1-0.1,0.4-0.1h2.6
		c0.1,0,0.2,0,0.3,0h1.4c0.2,0,0.3,0,0.3,0.1c0,0.1-0.1,0.2-0.3,0.2c-0.1,0-0.3,0-0.5,0c-0.4,0.1-0.6,0.4-0.6,0.9v1v6.6
		c0,0.4,0,0.7,0,1c0,0.7,0,1.2,0,1.5c0.1,0.5,0.3,0.8,0.7,0.8c0.3,0,0.6,0.1,0.9,0.1c0.2,0,0.3,0,0.3,0.1c0,0.1-0.1,0.2-0.3,0.2h-2
		c-0.1,0-0.1,0-0.2,0h-2.5c-0.2,0-0.3-0.1-0.3-0.2c0-0.1,0.1-0.1,0.3-0.1c0.2,0,0.4,0,0.6-0.1c0.3-0.1,0.4-0.3,0.5-0.8
		c0-0.3,0.1-0.8,0.1-1.5c0-0.3,0-0.6,0-1v-6.5H1383.2z"/>
	
		<radialGradient id="SVGID_3_" cx="1399.0499" cy="368.8242" r="6.7504" gradientTransform="matrix(1 0 0 -1 0 795)" gradientUnits="userSpaceOnUse">
		<stop  offset="0" style="stop-color:#F1E285"/>
		<stop  offset="1.089346e-02" style="stop-color:#F0E184"/>
		<stop  offset="1" style="stop-color:#B79346"/>
	</radialGradient>
	<path class="st2" d="M1394.9,430.2c0,1.1,0.2,1.7,0.6,1.8c0.2,0.1,0.5,0.1,0.9,0.1c0.2,0,0.3,0,0.3,0.1c0,0.1-0.1,0.2-0.4,0.2h-0.7
		h-0.9h-0.1h-0.9c-0.4,0-0.8,0-1.2,0c-0.2,0-0.4-0.1-0.4-0.2c0-0.1,0.1-0.1,0.3-0.1c0.3,0,0.6,0,0.7-0.1c0.3-0.1,0.5-0.8,0.5-2.1
		l0.2-9.8c0-0.4,0.1-0.6,0.2-0.6c0.1,0,0.2,0,0.3,0.1c0,0,0.1,0.1,0.2,0.2l1.9,2l5.5,5.7l0.3,0.3l0,0l0,0l0,0c0,0,0.1,0,0.1,0.1
		c0.1,0,0.1,0.1,0.1,0.1l1,1h0.1l-0.2-7.5c0-0.8-0.2-1.3-0.6-1.5c-0.1,0-0.3-0.1-0.4-0.1c-0.1,0-0.1,0-0.2,0h-0.2
		c-0.2,0-0.3-0.1-0.3-0.2c0-0.1,0.1-0.1,0.4-0.1c0.3,0,0.7,0,1.2,0h0.1h0.9c0,0,0,0,0.1,0h0.1c0.1,0,0.1,0,0.2,0c0.4,0,0.7,0,1,0
		s0.4,0,0.4,0.1c0,0.1-0.1,0.2-0.3,0.2c-0.2,0-0.4,0-0.5,0c-0.4,0.1-0.6,0.6-0.6,1.4l-0.2,10.5c0,0.3-0.1,0.5-0.2,0.5
		c-0.1,0-0.3-0.1-0.6-0.4c-0.2-0.2-0.6-0.5-1-0.9l-3.9-3.9c-0.4-0.4-0.9-0.9-1.3-1.4l-2.6-2.8l0,0L1394.9,430.2z"/>
	
		<radialGradient id="SVGID_4_" cx="1418.4819" cy="368.7837" r="6.7072" gradientTransform="matrix(1 0 0 -1 0 795)" gradientUnits="userSpaceOnUse">
		<stop  offset="0" style="stop-color:#F1E285"/>
		<stop  offset="1.089346e-02" style="stop-color:#F0E184"/>
		<stop  offset="1" style="stop-color:#B79346"/>
	</radialGradient>
	<path class="st3" d="M1421.6,425.2c0.1,0,0.1,0,0.1-0.1v-2.9v-1c0-0.5-0.3-0.9-0.7-0.9c-0.1,0-0.4,0-0.6,0s-0.3-0.1-0.3-0.2
		c0-0.1,0.1-0.1,0.3-0.1h2.8c0.1,0,0.2,0,0.3,0h1.4c0.2,0,0.3,0,0.3,0.1c0,0.1-0.1,0.2-0.3,0.2c-0.1,0-0.3,0-0.5,0
		c-0.4,0.1-0.6,0.4-0.6,0.9v1v6.5c0,0.4,0,0.7,0,1c0,0.7,0,1.2,0.1,1.5c0.1,0.6,0.3,0.9,0.6,0.9c0.3,0,0.6,0.1,0.8,0.1
		s0.3,0,0.3,0.1c0,0.1-0.1,0.2-0.3,0.2h-2h-0.1h-2.5c-0.2,0-0.3-0.1-0.3-0.2c0-0.1,0.1-0.1,0.3-0.1s0.4,0,0.6-0.1
		c0.2,0,0.4-0.3,0.5-0.9c0-0.3,0.1-0.8,0.1-1.5c0-0.3,0-0.6,0-1v-2.6c0-0.1,0-0.1-0.1-0.1h-6.3c-0.1,0-0.1,0-0.1,0.1v2.6
		c0,0.4,0,0.7,0,1c0,0.7,0,1.2,0.1,1.5c0.1,0.6,0.3,0.9,0.6,0.9c0.3,0,0.6,0.1,0.8,0.1s0.3,0,0.3,0.1c0,0.1-0.1,0.2-0.3,0.2h-2h-0.1
		h-2.5c-0.2,0-0.3-0.1-0.3-0.2c0-0.1,0.1-0.1,0.3-0.1s0.4,0,0.6-0.1c0.2,0,0.4-0.3,0.5-0.9c0-0.3,0.1-0.8,0.1-1.5c0-0.3,0-0.6,0-1
		v-6.5v-1c0-0.5-0.3-0.9-0.7-0.9c-0.1,0-0.4,0-0.6,0c-0.2,0-0.3-0.1-0.3-0.2c0-0.1,0.1-0.1,0.3-0.1h2.8c0.1,0,0.2,0,0.3,0h1.4
		c0.2,0,0.3,0,0.3,0.1c0,0.1-0.1,0.2-0.3,0.2c-0.1,0-0.3,0-0.5,0c-0.4,0.1-0.6,0.4-0.6,0.9v1v2.9c0,0.1,0,0.1,0.1,0.1H1421.6z"/>
	
		<radialGradient id="SVGID_5_" cx="1442.2432" cy="368.9009" r="5.0772" gradientTransform="matrix(1 0 0 -1 0 795)" gradientUnits="userSpaceOnUse">
		<stop  offset="0" style="stop-color:#F1E285"/>
		<stop  offset="1.089346e-02" style="stop-color:#F0E184"/>
		<stop  offset="1" style="stop-color:#B79346"/>
	</radialGradient>
	<path class="st4" d="M1441.5,422.6c0-0.4-0.1-0.6-0.2-0.6s-0.2,0-0.4,0.1c-0.1,0.1-0.3,0.1-0.6,0.3c-0.1,0-0.2,0.1-0.3,0.1
		c0,0-0.1,0-0.1,0.1l-0.7,0.3h-0.1c0,0,0,0-0.1,0v-0.1c0-0.1,0.1-0.2,0.2-0.2l3-2l0.9-0.7l0.1-0.1c0.1,0,0.2-0.1,0.2-0.1
		c0.1,0,0.2,0.1,0.2,0.3l-0.1,2.6c0,0.6,0,1.1,0,1.7v4.2c0,0.4,0,0.8,0,1c0,0.7,0,1.2,0,1.5c0,0.5,0.3,0.8,0.7,0.9l0.6,0.1
		c0.2,0,0.4,0,0.5,0s0.2,0.1,0.2,0.2c0,0.1-0.1,0.1-0.3,0.1h-0.9h-1.3c-0.1,0-0.1,0-0.1,0h-3.3c-0.2,0-0.3,0-0.3-0.1
		c0-0.1,0-0.2,0.1-0.2s0.3,0,0.6,0c0.3,0,0.6,0,0.7-0.1c0.4-0.1,0.6-0.4,0.7-0.9c0.1-0.8,0.1-2,0.1-3.7L1441.5,422.6z"/>
	
		<radialGradient id="SVGID_6_" cx="1465.8662" cy="368.7065" r="6.5742" gradientTransform="matrix(1 0 0 -1 0 795)" gradientUnits="userSpaceOnUse">
		<stop  offset="0" style="stop-color:#F1E285"/>
		<stop  offset="1.089346e-02" style="stop-color:#F0E184"/>
		<stop  offset="1" style="stop-color:#B79346"/>
	</radialGradient>
	<path class="st5" d="M1460.8,422.3v-1c0-0.5-0.3-0.9-0.7-0.9c-0.1,0-0.4,0-0.6,0s-0.3-0.1-0.3-0.2c0-0.1,0.1-0.1,0.4-0.1h2.9
		c0.1,0,0.2,0,0.3,0h1h1.6h0.8c0.7,0,1.2,0.1,1.8,0.2c0.6,0.1,1.2,0.3,1.7,0.6c0.6,0.3,1.1,0.7,1.5,1.1c0.5,0.5,0.8,1.1,1.1,1.7
		c0.3,0.8,0.5,1.6,0.5,2.5c0,1-0.2,1.9-0.5,2.7c-0.3,0.7-0.7,1.4-1.3,1.9c-0.2,0.2-0.5,0.4-0.8,0.6c-0.4,0.2-0.7,0.5-1.1,0.6
		c-0.5,0.2-1,0.4-1.6,0.5c-0.6,0.1-1.3,0.2-2.1,0.2c-0.3,0-0.6,0-0.9,0c-0.2,0-0.6,0-1-0.1l-0.9-0.1c-0.3,0-0.6,0-0.7,0h-0.4
		c-0.2,0-0.4,0-0.6,0h-1.1c-0.2,0-0.3-0.1-0.3-0.2c0-0.1,0.1-0.1,0.3-0.1c0.2,0,0.4,0,0.6-0.1c0.2,0,0.4-0.3,0.5-0.9
		c0-0.3,0.1-0.8,0.1-1.5c0-0.3,0-0.6,0-1v-6.4H1460.8z M1462.8,426.6c0,1.8,0,2.9,0,3.4v0.7c0,0.1,0,0.2,0,0.3s0,0.2,0.1,0.2
		c0.1,0.2,0.4,0.3,0.7,0.5c0.4,0.1,0.9,0.2,1.5,0.2c1.6,0,2.9-0.4,3.8-1.2c0.5-0.4,0.9-1,1.1-1.8c0.2-0.6,0.3-1.4,0.3-2.4
		s-0.2-1.8-0.5-2.6c-0.3-0.6-0.6-1.1-1.1-1.5c-0.4-0.3-0.8-0.6-1.2-0.9c-0.4-0.2-0.8-0.4-1.2-0.5c-0.4-0.1-0.8-0.2-1.2-0.2
		c-0.3,0-0.7,0-1.1,0c-0.2,0-0.4,0-0.6,0s-0.4,0-0.5,0.1c-0.1,0.1-0.2,0.2-0.2,0.3c0,0.3,0,0.7,0,1.4L1462.8,426.6L1462.8,426.6z"/>
	
		<radialGradient id="SVGID_7_" cx="1482.666" cy="368.9658" r="6.6521" gradientTransform="matrix(1 0 0 -1 0 795)" gradientUnits="userSpaceOnUse">
		<stop  offset="0" style="stop-color:#F1E285"/>
		<stop  offset="1.089346e-02" style="stop-color:#F0E184"/>
		<stop  offset="1" style="stop-color:#B79346"/>
	</radialGradient>
	<path class="st6" d="M1480.3,428.2c-0.1,0-0.1,0-0.2,0.1l-0.9,2.4c-0.2,0.4-0.3,0.7-0.3,1s0.2,0.5,0.7,0.5h0.3c0.2,0,0.2,0,0.2,0.1
		c0,0.1-0.1,0.2-0.3,0.2h-2h-0.1h-0.4c-0.5,0-0.9,0-1.2,0c-0.2,0-0.3-0.1-0.3-0.2c0-0.1,0.1-0.1,0.2-0.1c0.2,0,0.3,0,0.5,0
		c0.4,0,0.6-0.2,0.9-0.5c0.2-0.2,0.4-0.5,0.5-1l4.2-10.4c0.2-0.4,0.3-0.7,0.5-0.7c0.1,0,0.3,0.2,0.4,0.5c0.1,0.2,0.3,0.7,0.7,1.6
		l2.4,6.1c0.4,1.1,0.8,2,1,2.5c0.3,0.7,0.6,1.1,0.8,1.4c0.1,0.1,0.2,0.2,0.3,0.3c0.1,0,0.2,0.1,0.3,0.1c0.2,0,0.5,0.1,0.7,0.1
		c0.1,0,0.2,0,0.2,0.1c0,0.1-0.3,0.2-0.8,0.2h-3.2h-0.3c-0.1,0-0.1,0-0.1-0.1c0-0.1,0.1-0.1,0.2-0.2c0.1,0,0.1-0.1,0.2-0.1
		c0-0.1,0-0.2,0-0.3l-1.3-3.5c0-0.1-0.1-0.1-0.2-0.1H1480.3z M1483.7,427.3C1483.7,427.3,1483.8,427.3,1483.7,427.3l-1.4-4.2
		c0-0.1-0.1-0.1-0.1-0.1s-0.1,0-0.1,0.1l-1.5,4.1c0,0.1,0,0.1,0.1,0.1H1483.7z"/>
	
		<radialGradient id="SVGID_8_" cx="1504.8091" cy="368.7592" r="5.4162" gradientTransform="matrix(1 0 0 -1 0 795)" gradientUnits="userSpaceOnUse">
		<stop  offset="0" style="stop-color:#F1E285"/>
		<stop  offset="1.089346e-02" style="stop-color:#F0E184"/>
		<stop  offset="1" style="stop-color:#B79346"/>
	</radialGradient>
	<path class="st7" d="M1504.1,427.7c0,2.2,0.1,3.4,0.3,3.6c0.1,0.1,0.3,0.2,0.6,0.3c0.3,0.1,0.8,0.1,1.4,0.1c0.5,0,0.9,0,1.2-0.1
		c0.3-0.1,0.6-0.2,0.8-0.4c0.2-0.3,0.4-0.6,0.4-1c0-0.2,0.1-0.2,0.2-0.2s0.1,0.1,0.1,0.3c0,0.1,0,0.4-0.1,0.9l-0.1,0.6
		c0,0.2-0.1,0.4-0.1,0.5c-0.1,0.2-0.1,0.3-0.2,0.4c-0.1,0.1-0.4,0.1-0.8,0.1c-0.5,0-1,0-1.6,0h-1.2c-0.7,0-1.4,0-2,0h-0.4
		c-0.2,0-0.4,0-0.5,0h-1.2c-0.2,0-0.3-0.1-0.3-0.2c0-0.1,0.1-0.1,0.3-0.1c0.2,0,0.4,0,0.6-0.1c0.2,0,0.4-0.3,0.5-0.9
		c0-0.3,0.1-0.8,0.1-1.5c0-0.3,0-0.6,0-1v-6.5v-1c0-0.5-0.3-0.9-0.7-0.9c-0.1,0-0.3,0-0.5,0s-0.3-0.1-0.3-0.2c0-0.1,0.1-0.1,0.4-0.1
		h2.7c0.1,0,0.2,0,0.3,0h1.5c0.2,0,0.3,0,0.3,0.1c0,0.1-0.1,0.2-0.3,0.2c-0.2,0-0.4,0-0.6,0c-0.4,0.1-0.6,0.4-0.6,0.9v1v5.2H1504.1z
		"/>
	
		<radialGradient id="SVGID_9_" cx="1518.4614" cy="368.9658" r="6.6523" gradientTransform="matrix(1 0 0 -1 0 795)" gradientUnits="userSpaceOnUse">
		<stop  offset="0" style="stop-color:#F1E285"/>
		<stop  offset="1.089346e-02" style="stop-color:#F0E184"/>
		<stop  offset="1" style="stop-color:#B79346"/>
	</radialGradient>
	<path class="st8" d="M1516.1,428.2c-0.1,0-0.1,0-0.2,0.1l-0.9,2.4c-0.2,0.4-0.3,0.7-0.3,1s0.2,0.5,0.7,0.5h0.3c0.2,0,0.2,0,0.2,0.1
		c0,0.1-0.1,0.2-0.3,0.2h-2h-0.1h-0.4c-0.5,0-0.9,0-1.2,0c-0.2,0-0.3-0.1-0.3-0.2c0-0.1,0.1-0.1,0.2-0.1c0.2,0,0.3,0,0.5,0
		c0.4,0,0.6-0.2,0.9-0.5c0.2-0.2,0.4-0.5,0.5-1l4.2-10.4c0.2-0.4,0.3-0.7,0.5-0.7c0.1,0,0.3,0.2,0.4,0.5c0.1,0.2,0.3,0.7,0.7,1.6
		l2.4,6.1c0.4,1.1,0.8,2,1,2.5c0.3,0.7,0.6,1.1,0.8,1.4c0.1,0.1,0.2,0.2,0.3,0.3c0.1,0,0.2,0.1,0.3,0.1c0.2,0,0.5,0.1,0.7,0.1
		c0.1,0,0.2,0,0.2,0.1c0,0.1-0.3,0.2-0.8,0.2h-3.2h-0.3c-0.1,0-0.1,0-0.1-0.1c0-0.1,0.1-0.1,0.2-0.2c0.1,0,0.1-0.1,0.2-0.1
		c0-0.1,0-0.2,0-0.3l-1.3-3.5c0-0.1-0.1-0.1-0.2-0.1H1516.1z M1519.5,427.3C1519.5,427.3,1519.6,427.3,1519.5,427.3l-1.4-4.2
		c0-0.1-0.1-0.1-0.1-0.1s-0.1,0-0.1,0.1l-1.5,4.1c0,0.1,0,0.1,0.1,0.1H1519.5z"/>
	
		<radialGradient id="SVGID_10_" cx="1533.4727" cy="368.9009" r="6.0198" gradientTransform="matrix(1 0 0 -1 0 795)" gradientUnits="userSpaceOnUse">
		<stop  offset="0" style="stop-color:#F1E285"/>
		<stop  offset="1.089346e-02" style="stop-color:#F0E184"/>
		<stop  offset="1" style="stop-color:#B79346"/>
	</radialGradient>
	<path class="st9" d="M1532.6,420.9l-2.5,0.1c-0.9,0-1.4,0.2-1.6,0.5c-0.1,0.2-0.2,0.4-0.3,0.6c0,0.1-0.1,0.2-0.2,0.2
		s-0.1-0.1-0.1-0.3c0-0.1,0-0.2,0-0.4c0-0.2,0.1-0.4,0.1-0.6c0.1-0.5,0.2-0.8,0.2-0.9c0-0.2,0.1-0.3,0.2-0.3h0.1h0.1
		c0.1,0,0.1,0.1,0.2,0.1s0.2,0,0.3,0c0.5,0.1,1.1,0.1,1.7,0.1h6.6c0.2,0,0.5,0,0.7,0c0.1,0,0.2,0,0.3,0l0.7-0.1
		c0.1,0,0.1,0.1,0.1,0.3v1.9c0,0.2-0.1,0.3-0.1,0.3c-0.1,0-0.2-0.1-0.2-0.3v-0.2c0-0.3-0.2-0.5-0.4-0.6c-0.3-0.2-0.8-0.3-1.5-0.3
		h-2.1v7.9c0,0.4,0,0.7,0,1c0,0.7,0,1.2,0.1,1.5c0.1,0.6,0.3,0.9,0.6,0.9c0.3,0,0.6,0.1,0.8,0.1c0.2,0,0.3,0,0.3,0.1
		c0,0.1-0.1,0.2-0.3,0.2h-2c-0.1,0-0.1,0-0.1,0h-2.5c-0.2,0-0.3-0.1-0.3-0.2c0-0.1,0.1-0.1,0.3-0.1c0.2,0,0.4,0,0.6-0.1
		c0.3-0.1,0.4-0.4,0.5-0.9c0-0.3,0.1-0.8,0.1-1.5c0-0.3,0-0.6,0-1v-8H1532.6z"/>
</g>
<radialGradient id="SVGID_11_" cx="1450.8" cy="384.4911" r="116.5323" gradientTransform="matrix(1 0 0 -1 0 795)" gradientUnits="userSpaceOnUse">
	<stop  offset="0" style="stop-color:#F1E285"/>
	<stop  offset="1.089346e-02" style="stop-color:#F0E184"/>
	<stop  offset="1" style="stop-color:#B79346"/>
</radialGradient>
<rect x="1286" y="409.8" class="st10" width="329.6" height="1.4"/>
<radialGradient id="SVGID_12_" cx="1450.8" cy="435.3799" r="116.5323" gradientTransform="matrix(1 0 0 -1 0 795)" gradientUnits="userSpaceOnUse">
	<stop  offset="0" style="stop-color:#F1E285"/>
	<stop  offset="1.089346e-02" style="stop-color:#F0E184"/>
	<stop  offset="1" style="stop-color:#B79346"/>
</radialGradient>
<rect x="1286" y="358.9" class="st11" width="329.6" height="1.4"/>
<g>
	
		<radialGradient id="SVGID_13_" cx="1304.6743" cy="408.8652" r="17.6702" gradientTransform="matrix(1 0 0 -1 0 795)" gradientUnits="userSpaceOnUse">
		<stop  offset="0" style="stop-color:#F1E285"/>
		<stop  offset="1.089346e-02" style="stop-color:#F0E184"/>
		<stop  offset="1" style="stop-color:#B79346"/>
	</radialGradient>
	<path class="st12" d="M1296.6,384.1h0.2l7.6-8c0.9-1,1.5-1.6,1.8-2l0.9-1c0.3-0.4,0.5-0.7,0.7-1c0.4-0.6,0.6-1.1,0.6-1.4
		c0-0.5-0.2-0.8-0.6-0.9c-0.4-0.1-0.6-0.2-0.6-0.5s0.2-0.4,0.7-0.4h2.2l1.3,0.1h2.3l2.9-0.1h1.2c0.5,0,0.8,0.1,0.8,0.4
		s-0.2,0.4-0.7,0.4c-0.9,0-1.7,0.2-2.6,0.5c-1.6,0.6-3.2,1.7-4.9,3.4c-0.9,0.8-2.5,2.4-4.9,4.8c-1.1,1.1-2.1,2.1-2.9,2.9
		c-1,1-1.6,1.7-2,2c0.4,0.5,1.2,1.4,2.4,2.8l3.7,4.1c1.4,1.5,2.6,2.8,3.8,4l3.9,3.9c0.6,0.5,1.1,1,1.6,1.3c1.2,1,2.3,1.7,3.4,2.1
		c0.6,0.2,1.2,0.4,1.7,0.5c0.4,0.1,0.7,0.1,1.1,0.1c0.4,0,0.6,0.1,0.6,0.4c0,0.1-0.1,0.3-0.2,0.4c-0.1,0.1-0.4,0.1-0.9,0.1h-3.9
		c-1.4,0-2.5,0-3.1-0.1c-1.1-0.1-2.1-0.4-3-0.9c-0.6-0.4-1.5-1-2.6-2c-0.5-0.4-1.3-1.3-2.6-2.7c-1-1.2-2.3-2.6-3.8-4.2
		c-3.1-3.6-4.9-5.8-5.5-6.6l-0.5-0.7h-0.2v9.8c0,1.8,0.1,3.2,0.1,4c0.1,1.5,0.6,2.3,1.6,2.5c0.8,0.1,1.6,0.2,2.2,0.2
		c0.4,0,0.6,0.1,0.6,0.4s-0.3,0.4-0.9,0.4l-7.6-0.1c-0.2,0-0.4,0-0.7,0l-3.9,0.1c-0.6,0-0.9-0.1-0.9-0.4c0-0.2,0.2-0.4,0.7-0.4
		s1.1-0.1,1.6-0.2c0.7-0.1,1.1-1,1.3-2.5c0.1-0.8,0.1-2.2,0.2-4c0-0.7,0-1.6,0-2.7v-17.8l-0.1-2.8c-0.1-1.5-0.7-2.3-1.9-2.6
		c-0.4-0.1-1-0.1-1.8-0.1c-0.5,0-0.8-0.1-0.8-0.4s0.3-0.4,1-0.4l7.4,0.1c0.2,0,0.4,0,0.7,0l3.7-0.1c0.6,0,1,0.1,1,0.4
		s-0.2,0.4-0.6,0.4c-0.3,0-0.7,0-1.3,0.1c-1,0.2-1.6,1-1.7,2.6l-0.1,2.8v9H1296.6z"/>
	
		<radialGradient id="SVGID_14_" cx="1329.0806" cy="408.8652" r="13.1534" gradientTransform="matrix(1 0 0 -1 0 795)" gradientUnits="userSpaceOnUse">
		<stop  offset="0" style="stop-color:#F1E285"/>
		<stop  offset="1.089346e-02" style="stop-color:#F0E184"/>
		<stop  offset="1" style="stop-color:#B79346"/>
	</radialGradient>
	<path class="st13" d="M1325.7,375.3l-0.1-2.8c-0.1-1.5-0.6-2.3-1.5-2.5c-0.4-0.1-1-0.2-1.6-0.2c-0.5,0-0.7-0.2-0.7-0.5
		c0-0.2,0.4-0.4,1.1-0.4l7,0.1c0.2,0,0.4,0,0.7,0l3.7-0.1c0.6,0,1,0.1,1,0.4s-0.2,0.5-0.7,0.5c-0.4,0-0.8,0-1.3,0.1
		c-1,0.2-1.6,1-1.7,2.6l-0.1,2.8v17.9c0,1.1,0,2,0,2.7c0,1.8,0,3.2,0.1,4c0.2,1.3,0.8,2.1,1.8,2.2c0.9,0.1,1.6,0.2,2.3,0.2
		c0.5,0,0.7,0.1,0.7,0.4s-0.3,0.4-0.9,0.4l-5.5-0.1c-0.1,0-0.3,0-0.4,0l-6.9,0.1c-0.6,0-0.9-0.1-0.9-0.4c0-0.2,0.2-0.4,0.7-0.4
		s1.1-0.1,1.6-0.2c0.7-0.1,1.2-0.9,1.3-2.3c0.1-0.9,0.1-2.2,0.2-4c0-0.8,0-1.7,0-2.7v-17.8H1325.7z"/>
	
		<radialGradient id="SVGID_15_" cx="1359.9282" cy="408.9756" r="18.407" gradientTransform="matrix(1 0 0 -1 0 795)" gradientUnits="userSpaceOnUse">
		<stop  offset="0" style="stop-color:#F1E285"/>
		<stop  offset="1.089346e-02" style="stop-color:#F0E184"/>
		<stop  offset="1" style="stop-color:#B79346"/>
	</radialGradient>
	<path class="st14" d="M1348.7,397.1c0.1,3,0.6,4.7,1.6,5c0.6,0.2,1.4,0.3,2.3,0.3c0.5,0,0.8,0.1,0.8,0.4s-0.3,0.4-1,0.4h-2
		l-2.5-0.1c-0.1,0-0.2,0-0.3,0h-2.5c-1.2,0.1-2.2,0.1-3.2,0.1c-0.7,0-1-0.1-1-0.4c0-0.2,0.2-0.4,0.7-0.4c0.8,0,1.5-0.1,2-0.2
		c0.9-0.3,1.4-2.1,1.4-5.6l0.4-26.8c0-1,0.2-1.5,0.6-1.5c0.2,0,0.5,0.1,0.7,0.4c0.1,0.1,0.3,0.3,0.5,0.5l5.2,5.6l15.1,15.5l0.7,0.8
		c0,0,0.1,0,0.1,0.1l0,0l0,0c0.1,0.1,0.1,0.1,0.2,0.2c0.2,0.1,0.3,0.2,0.4,0.4l2.7,2.8h0.2l-0.5-20.3c0-2.3-0.5-3.6-1.5-4.1
		c-0.3-0.1-0.7-0.2-1.2-0.2c-0.2,0-0.4,0-0.6,0h-0.6c-0.5,0-0.7-0.1-0.7-0.4s0.4-0.4,1.2-0.4c0.9,0,2,0,3.2,0c0.1,0,0.2,0,0.4,0h2.4
		c0.1,0,0.1,0,0.2,0h0.2c0.2,0,0.4,0,0.5,0c1,0,2,0,2.9,0c0.7,0,1,0.1,1,0.4s-0.3,0.4-0.8,0.4s-1,0-1.4,0.1
		c-1.1,0.3-1.7,1.6-1.7,3.8l-0.5,28.6c0,0.9-0.2,1.4-0.6,1.4c-0.4,0-0.9-0.3-1.5-1c-0.7-0.6-1.6-1.5-2.6-2.6l-10.5-10.8
		c-1.1-1.1-2.4-2.4-3.7-3.7l-7.1-7.7h-0.1L1348.7,397.1z"/>
	
		<radialGradient id="SVGID_16_" cx="1402.0898" cy="408.85" r="17.8736" gradientTransform="matrix(1 0 0 -1 0 795)" gradientUnits="userSpaceOnUse">
		<stop  offset="0" style="stop-color:#F1E285"/>
		<stop  offset="1.089346e-02" style="stop-color:#F0E184"/>
		<stop  offset="1" style="stop-color:#B79346"/>
	</radialGradient>
	<path class="st15" d="M1416.5,400.2c0,0.8-0.2,1.4-0.6,1.6c-1.4,0.7-3.1,1.2-5.3,1.6c-1.8,0.3-3.7,0.5-5.7,0.5
		c-6,0-10.9-1.4-14.6-4.2c-2-1.5-3.5-3.3-4.6-5.5c-1.1-2.4-1.7-5-1.7-8.1c0-3.4,0.8-6.5,2.4-9.2c1.4-2.4,3.2-4.3,5.5-5.6
		c2-1.2,4.1-2,6.3-2.4c0.9-0.2,1.9-0.3,3-0.4c0.9-0.1,1.8-0.1,2.9-0.1c1.4,0,3,0.1,4.8,0.3c1.5,0.2,2.5,0.3,3.2,0.5
		c0.6,0.1,1.2,0.2,1.8,0.3c0.8,0.1,1.4,0.1,1.8,0.2c0.2,0,0.4,0.1,0.5,0.2c0.1,0.1,0.1,0.2,0.1,0.4l-0.1,1.1c0,0.2,0,0.5,0,0.7
		c-0.1,0.6-0.1,1.4-0.1,2.2c0,1,0,2.2,0,3.5c0,0.6-0.2,1-0.5,1c-0.2,0-0.4-0.2-0.4-0.6l-0.1-0.9c-0.1-0.3-0.1-0.6-0.2-1
		c-0.3-0.7-0.7-1.4-1.2-1.9c-0.8-0.9-2-1.6-3.6-2.3c-2-0.8-4.1-1.2-6.5-1.2c-0.8,0-1.5,0-2,0.1c-0.8,0.1-1.5,0.2-2.2,0.3
		c-1.8,0.4-3.3,1.2-4.8,2.4c-1.3,1.1-2.3,2.5-3,4.2c-0.8,1.9-1.1,4.1-1.1,6.8c0,5,1.4,9,4.3,12.2c2.9,3.2,6.7,4.8,11.4,4.8h1
		c0.4,0,0.7,0,1,0c0.8-0.1,1.4-0.2,1.9-0.4c0.6-0.3,0.9-0.8,0.9-1.7v-7.3c0-0.9,0-1.7,0-2.3c0-1.4-0.7-2.3-1.9-2.6
		c-0.4-0.1-0.9-0.1-1.8-0.1c-0.4,0-0.7-0.1-0.7-0.4s0.3-0.5,1-0.5l7.8,0.1c0.3,0,0.7-0.1,1.4-0.1h2.7c0.6,0,0.9,0.2,0.9,0.5
		c0,0.2-0.2,0.4-0.6,0.4c-0.3,0-0.7,0-1.2,0.1c-1.1,0.2-1.7,1.1-1.7,2.6c0,0.6,0,1.4,0,2.3v7.9H1416.5z"/>
	
		<radialGradient id="SVGID_17_" cx="1448.2515" cy="408.85" r="14.9363" gradientTransform="matrix(1 0 0 -1 0 795)" gradientUnits="userSpaceOnUse">
		<stop  offset="0" style="stop-color:#F1E285"/>
		<stop  offset="1.089346e-02" style="stop-color:#F0E184"/>
		<stop  offset="1" style="stop-color:#B79346"/>
	</radialGradient>
	<path class="st16" d="M1440.5,375.3l-0.1-2.8c-0.1-1.5-0.7-2.3-1.9-2.6c-0.4-0.1-1-0.1-1.8-0.1c-0.5,0-0.8-0.1-0.8-0.4
		s0.3-0.4,1-0.4l8,0.1c0.2,0,0.5,0,0.8,0l4.2-0.1c1.3,0,2.5,0.1,3.6,0.3c0.9,0.1,1.7,0.4,2.4,0.7c0.6,0.2,1.1,0.5,1.5,0.9l0.5,0.4
		l0.3,0.3c0.6,0.6,1.1,1.3,1.5,2.1c0.5,1.1,0.8,2.2,0.8,3.2c0,3.2-1.1,5.8-3.2,7.9c-2.1,2-4.7,3.1-8,3.1h-0.4c-0.2,0-0.4,0-0.5,0
		c-0.2,0-0.3-0.1-0.4-0.1c-0.1-0.1-0.2-0.2-0.2-0.3c0-0.3,0.4-0.5,1.3-0.5c1.4,0,2.7-0.7,4-2c1.4-1.5,2.1-3.3,2.1-5.5
		c0-0.5,0-1,0-1.3c-0.1-0.6-0.2-1.2-0.3-1.8c-0.4-1.5-1.2-2.7-2.3-3.7c-0.7-0.7-1.6-1.1-2.5-1.5c-0.7-0.2-1.3-0.3-2-0.3
		c-0.8,0-1.4,0.1-1.8,0.2c-0.2,0.1-0.4,0.4-0.4,0.9v21.1c0,1.1,0,2,0,2.7c0,1.8,0.1,3.2,0.2,4c0.1,1.5,0.7,2.3,1.8,2.5
		c0.8,0.1,1.6,0.2,2.3,0.2c0.5,0,0.7,0.1,0.7,0.4s-0.3,0.4-0.9,0.4l-5.5-0.1c-0.1,0-0.3,0-0.4,0l-6.9,0.1c-0.6,0-0.9-0.1-0.9-0.4
		c0-0.2,0.2-0.4,0.7-0.4s1.1-0.1,1.6-0.2c0.7-0.1,1.1-1,1.3-2.5c0.1-0.8,0.1-2.2,0.2-4c0-0.7,0-1.6,0-2.7v-17.8H1440.5z"/>
	
		<radialGradient id="SVGID_18_" cx="1478.3916" cy="409.3623" r="18.1215" gradientTransform="matrix(1 0 0 -1 0 795)" gradientUnits="userSpaceOnUse">
		<stop  offset="0" style="stop-color:#F1E285"/>
		<stop  offset="1.089346e-02" style="stop-color:#F0E184"/>
		<stop  offset="1" style="stop-color:#B79346"/>
	</radialGradient>
	<path class="st17" d="M1471.9,391.4c-0.2,0-0.3,0.1-0.4,0.4l-2.4,6.5c-0.5,1.1-0.7,2-0.7,2.8c0,0.9,0.6,1.4,1.8,1.4h0.7
		c0.4,0,0.7,0.1,0.7,0.4s-0.3,0.4-0.8,0.4l-5.5-0.1c-0.1,0-0.1,0-0.3,0h-1c-1.3,0.1-2.4,0.1-3.3,0.1c-0.6,0-0.9-0.1-0.9-0.4
		c0-0.2,0.2-0.4,0.6-0.4s0.9,0,1.4-0.1c1-0.1,1.8-0.6,2.4-1.3c0.5-0.5,1-1.5,1.5-2.8l11.4-28.4c0.5-1.2,0.9-1.8,1.3-1.8
		c0.3,0,0.7,0.5,1.1,1.4c0.2,0.5,0.8,2,1.8,4.4l6.6,16.5c1.2,3,2.1,5.3,2.8,6.9c0.8,1.8,1.5,3.1,2.3,3.9c0.3,0.3,0.6,0.6,1,0.8
		c0.2,0.1,0.5,0.2,0.8,0.3c0.6,0.1,1.2,0.2,1.9,0.2c0.4,0,0.6,0.1,0.6,0.4s-0.7,0.4-2.1,0.4l-8.8-0.1l-0.7-0.1
		c-0.2,0-0.4-0.1-0.4-0.3s0.2-0.4,0.6-0.4c0.2-0.1,0.3-0.2,0.4-0.4s0.1-0.4,0-0.7l-3.6-9.6c-0.1-0.2-0.2-0.3-0.4-0.3H1471.9
		L1471.9,391.4z M1481.1,389.2c0.2,0,0.3-0.1,0.2-0.3l-4.1-11.2c-0.1-0.3-0.2-0.4-0.2-0.4c-0.1,0-0.2,0.1-0.3,0.4l-4.2,11.1
		c-0.1,0.2,0,0.3,0.2,0.3h8.4V389.2z"/>
	
		<radialGradient id="SVGID_19_" cx="1509.2944" cy="408.7988" r="14.7537" gradientTransform="matrix(1 0 0 -1 0 795)" gradientUnits="userSpaceOnUse">
		<stop  offset="0" style="stop-color:#F1E285"/>
		<stop  offset="1.089346e-02" style="stop-color:#F0E184"/>
		<stop  offset="1" style="stop-color:#B79346"/>
	</radialGradient>
	<path class="st18" d="M1507.4,390.1c0,6,0.3,9.2,1,9.7c0.4,0.4,1,0.6,1.7,0.8c0.8,0.2,2.1,0.2,3.8,0.2c1.5,0,2.5-0.1,3.1-0.2
		c0.9-0.2,1.6-0.5,2.2-1.1c0.7-0.7,1.1-1.6,1.2-2.7c0.1-0.4,0.2-0.7,0.5-0.7c0.2,0,0.4,0.2,0.4,0.8c0,0.4-0.1,1.1-0.2,2.3l-0.2,1.6
		c-0.1,0.6-0.2,1-0.3,1.3c-0.1,0.5-0.4,0.8-0.6,1c-0.3,0.1-1.1,0.2-2.2,0.2c-1.4,0-2.8,0-4.3,0l-3.4-0.1c-2-0.1-3.9-0.1-5.5-0.1
		h-1.1c-0.5,0-1,0-1.5,0l-3.1,0.1c-0.6,0-0.9-0.1-0.9-0.4c0-0.2,0.2-0.4,0.7-0.4s1.1-0.1,1.6-0.2c0.7-0.1,1.1-1,1.3-2.5
		c0.1-0.8,0.2-2.2,0.2-4c0-0.7,0-1.6,0-2.7v-17.8l-0.1-2.8c-0.1-1.5-0.7-2.3-1.9-2.6c-0.4-0.1-0.8-0.1-1.5-0.1
		c-0.5,0-0.8-0.1-0.8-0.4s0.3-0.4,1-0.4l7.4,0.1c0.2,0,0.5,0,0.8,0l4.2-0.1c0.6,0,1,0.1,1,0.4s-0.3,0.4-0.8,0.4
		c-0.6,0-1.2,0-1.8,0.1c-1,0.2-1.6,1-1.7,2.6l-0.1,2.8L1507.4,390.1L1507.4,390.1z"/>
	
		<radialGradient id="SVGID_20_" cx="1537.4355" cy="409.3623" r="18.1216" gradientTransform="matrix(1 0 0 -1 0 795)" gradientUnits="userSpaceOnUse">
		<stop  offset="0" style="stop-color:#F1E285"/>
		<stop  offset="1.089346e-02" style="stop-color:#F0E184"/>
		<stop  offset="1" style="stop-color:#B79346"/>
	</radialGradient>
	<path class="st19" d="M1530.9,391.4c-0.2,0-0.3,0.1-0.4,0.4l-2.4,6.5c-0.5,1.1-0.7,2-0.7,2.8c0,0.9,0.6,1.4,1.8,1.4h0.7
		c0.4,0,0.7,0.1,0.7,0.4s-0.2,0.4-0.8,0.4l-5.5-0.1c-0.1,0-0.1,0-0.3,0h-1c-1.3,0.1-2.4,0.1-3.3,0.1c-0.6,0-0.9-0.1-0.9-0.4
		c0-0.2,0.2-0.4,0.6-0.4s0.9,0,1.4-0.1c1-0.1,1.8-0.6,2.4-1.3c0.5-0.5,1-1.5,1.5-2.8l11.4-28.4c0.5-1.2,0.9-1.8,1.3-1.8
		c0.3,0,0.7,0.5,1.1,1.4c0.2,0.5,0.8,2,1.8,4.4l6.6,16.5c1.2,3,2.1,5.3,2.8,6.9c0.8,1.8,1.5,3.1,2.3,3.9c0.3,0.3,0.6,0.6,1,0.8
		c0.2,0.1,0.5,0.2,0.8,0.3c0.6,0.1,1.2,0.2,1.9,0.2c0.4,0,0.6,0.1,0.6,0.4s-0.7,0.4-2.1,0.4l-8.8-0.1l-0.7-0.1
		c-0.2,0-0.4-0.1-0.4-0.3s0.2-0.4,0.6-0.4c0.2-0.1,0.3-0.2,0.4-0.4s0.1-0.4,0-0.7l-3.6-9.6c-0.1-0.2-0.2-0.3-0.4-0.3H1530.9
		L1530.9,391.4z M1540.2,389.2c0.2,0,0.3-0.1,0.2-0.3l-4.1-11.2c-0.1-0.3-0.2-0.4-0.2-0.4c-0.1,0-0.2,0.1-0.3,0.4l-4.2,11.1
		c-0.1,0.2,0,0.3,0.2,0.3h8.4V389.2z"/>
	
		<radialGradient id="SVGID_21_" cx="1571.5649" cy="408.8924" r="16.7494" gradientTransform="matrix(1 0 0 -1 0 795)" gradientUnits="userSpaceOnUse">
		<stop  offset="0" style="stop-color:#F1E285"/>
		<stop  offset="1.089346e-02" style="stop-color:#F0E184"/>
		<stop  offset="1" style="stop-color:#B79346"/>
	</radialGradient>
	<path class="st20" d="M1568.4,402.8c-2.7-0.8-5-2.1-7-3.8c-2-1.8-3.5-4-4.5-6.5c-0.8-2.1-1.1-4.4-1.1-6.9c0-0.9,0.1-1.8,0.2-2.7
		c0.2-1.1,0.5-2.2,0.8-3.2c0.4-1.2,0.9-2.3,1.6-3.3c0.8-1.2,1.6-2.2,2.7-3.2c1.7-1.6,3.7-2.7,5.8-3.5c2.4-0.9,5.2-1.3,8.5-1.3
		c1.3,0,2.5,0,3.6,0.1c0.8,0.1,1.8,0.2,3,0.3l1.2,0.2l2.3,0.4l1.1,0.1c0.4,0,0.7,0.2,0.7,0.6l-0.1,0.8c-0.1,0.5-0.1,1.1-0.1,1.7
		c0,0.3,0,0.7,0,1.3v2.7c0,0.4,0,0.7,0,1c-0.1,0.7-0.2,1-0.6,1c-0.3,0-0.4-0.3-0.4-1c-0.1-1.6-0.6-3-1.8-4.2
		c-1.8-1.9-4.8-2.8-9.2-2.8c-3.6,0-6.5,0.9-8.5,2.8c-1.5,1.4-2.6,3.2-3.3,5.3c-0.6,1.8-0.9,3.9-0.9,6.4c0,2.6,0.4,4.9,1.3,7
		c0.9,1.9,2,3.6,3.5,5c2.8,2.7,5.9,4,9.4,4c4,0,6.8-0.8,8.3-2.5c0.8-0.9,1.3-1.9,1.5-3c0.1-0.6,0.3-0.9,0.6-0.9
		c0.3,0,0.4,0.2,0.4,0.7c0,0.3-0.1,1.2-0.3,2.6c-0.2,1.6-0.5,2.7-0.7,3.4c-0.2,0.6-0.6,1.1-1.2,1.3c-0.8,0.3-2.1,0.6-3.7,0.8
		c-1.4,0.2-2.9,0.3-4.5,0.3C1573.7,403.9,1570.9,403.5,1568.4,402.8z"/>
	
		<radialGradient id="SVGID_22_" cx="1603.8374" cy="408.9863" r="14.6934" gradientTransform="matrix(1 0 0 -1 0 795)" gradientUnits="userSpaceOnUse">
		<stop  offset="0" style="stop-color:#F1E285"/>
		<stop  offset="1.089346e-02" style="stop-color:#F0E184"/>
		<stop  offset="1" style="stop-color:#B79346"/>
	</radialGradient>
	<path class="st21" d="M1597,375.3l-0.1-2.8c-0.1-1.5-0.7-2.3-1.9-2.6c-0.4-0.1-1-0.1-1.8-0.1c-0.5,0-0.8-0.1-0.8-0.4s0.3-0.4,1-0.4
		l6.5,0.1h9.4h1.9c1-0.1,1.7-0.2,1.9-0.3c0.1,0,0.1,0,0.2,0l0.6-0.2c0.2,0,0.3,0.1,0.3,0.4l-0.2,1.6c-0.1,0.4-0.1,0.8-0.1,1.3
		l-0.2,2.4c0,0.3,0,0.5-0.1,0.6c0,0.1-0.1,0.3-0.1,0.3c-0.1,0.1-0.2,0.2-0.3,0.2c-0.3,0-0.4-0.2-0.4-0.6c0-0.2,0-0.5,0-0.7
		c-0.1-0.4-0.2-0.7-0.2-0.9c-0.2-0.4-0.4-0.8-0.8-1c-0.4-0.3-1.2-0.5-2.3-0.6c-0.2,0-0.6,0-1.2,0l-1.9-0.1h-3.3
		c-0.2,0-0.3,0.2-0.3,0.5v11.4c0,0.3,0.1,0.5,0.3,0.5h3.6c0.9,0,1.6,0,2.2,0c0.7,0,1.2,0,1.5-0.1c1.1-0.1,1.8-0.3,2.2-0.7
		c0.3-0.4,0.6-0.6,0.7-0.6c0.2,0,0.3,0.1,0.3,0.4l-0.2,1.9c-0.1,0.5-0.1,0.9-0.1,1.5l-0.2,3c0,0.6-0.1,0.9-0.4,0.9s-0.4-0.1-0.4-0.4
		V389c0-0.3-0.1-0.6-0.1-0.9c-0.3-1-1.1-1.6-2.5-1.8c-0.2,0-0.6,0-1.2,0c-0.5,0-1.1,0-1.9,0h-3.3c-0.2,0-0.3,0.1-0.3,0.4v10.6
		c0.1,1.6,0.4,2.6,1,3.1c0.7,0.5,2.1,0.7,4.4,0.7h1l1.1-0.1c0.9-0.1,1.6-0.2,2.1-0.5c1.1-0.5,1.7-1.6,2-3.3c0.1-0.5,0.3-0.7,0.5-0.7
		s0.4,0.3,0.4,0.8c0,1.8-0.2,3.5-0.6,5c-0.2,0.8-1,1.2-2.5,1.2c-1.4,0-2.9,0-4.4,0l-3.4-0.1c-1.9-0.1-3.5-0.1-4.7-0.1h-1.1
		c-0.5,0-1,0-1.5,0l-3.1,0.1c-0.6,0-0.9-0.1-0.9-0.4c0-0.2,0.2-0.4,0.7-0.4s1.1-0.1,1.6-0.2c0.7-0.1,1.1-1,1.3-2.5
		c0.1-0.8,0.1-2.2,0.2-4c0-0.7,0-1.6,0-2.7L1597,375.3L1597,375.3z"/>
</g>
<linearGradient id="SVGID_23_" gradientUnits="userSpaceOnUse" x1="1397.1423" y1="483.4946" x2="1500.4753" y2="481.6909" gradientTransform="matrix(1 0 0 -1 0 795)">
	<stop  offset="0" style="stop-color:#EAA02A"/>
	<stop  offset="0.12" style="stop-color:#F7F1CB"/>
	<stop  offset="0.25" style="stop-color:#FFFFFF"/>
	<stop  offset="0.41" style="stop-color:#F7F1CB"/>
	<stop  offset="0.81" style="stop-color:#E0A432"/>
	<stop  offset="1" style="stop-color:#C06E30"/>
</linearGradient>
<path class="st22" d="M1453.9,289.1c0.6,0.8,1.5,1.8,3.1,3.1c3.7,2.8,4.1,2.7,4.1,2.7s-7.9,7.8-5,18.5c2.9,10.8,6,14.1,8.2,14.4
	s2.6-4.9,2-10.1s1.2-6.1,3-6.1s2.1,2.3,2.1,2.3s2.4,0.4,6-2.4c3.6-2.9,4-3.8,4-3.8s-3.2,5.7-3.4,7.9c-0.2,2.2-0.2,2.7-0.2,2.7
	s2.4-1.1,3.1,1.7c0.7,2.8-2.6,4.4-6,4.8c-3.4,0.3-5.7,3.1-6.3,4.3c-0.7,1.2-0.3,3,4.6,4.4c4.9,1.4,9.2-0.3,9.2-0.3l-2.1,4.4h-14.9
	c0,0-4.7-1.6-8.1-6.9c-1.5-2.4-2.6-4.5-3.3-6.1c-0.7,1.6-1.8,3.7-3.3,6.1c-3.4,5.3-8.1,6.9-8.1,6.9h-14.9l-2.1-4.4
	c0,0,4.3,1.8,9.2,0.3c4.9-1.4,5.2-3.2,4.6-4.4c-0.7-1.2-2.9-4-6.3-4.3c-3.4-0.3-6.7-2-6-4.8c0.7-2.8,3.1-1.7,3.1-1.7s0-0.4-0.2-2.7
	c-0.2-2.2-3.4-7.9-3.4-7.9s0.4,0.9,4,3.8c3.6,2.9,6,2.4,6,2.4s0.3-2.3,2.1-2.3s3.6,0.9,3,6.1c-0.6,5.2-0.2,10.4,2,10.1
	s5.3-3.7,8.2-14.4c2.9-10.8-5-18.5-5-18.5s0.4,0.1,4.1-2.7C1452.4,290.9,1453.4,289.9,1453.9,289.1L1453.9,289.1z M1453.9,341.7
	h28.6l19-39.4c0,0-2.8,3.9-5.7,4.2c-2.9,0.3-2.9,0.3-2.9,0.3s1.6,4.4-1.6,7.2c-3.1,2.8-4,2.4-4,2.4s2.7,4.3-1,9.4s-9.5,4.4-11.4,4.2
	s-3-1.2-2.9-1.8c0.1-0.6,4.4,2,10.1-1.7c5.7-3.6,4.3-8.6,2.9-10c-1.4-1.4-4.2-1.3-4.2-1.3s3.3-0.6,3.7-6.8c0.3-6.2,1.4-9,1.4-9
	s-2.4,4.4-6.4,5.2s-4.8,2.4-5.2,4.2c-0.4,1.8-0.4,2.4-0.4,2.4s-0.4-5.3-5.1-5.4c-4.7-0.1-6.8,6.4-6.4,9.2c0.3,2.8,0.9,4.7,0.9,4.7
	s-4.1-4.4-2.6-14c1.6-9.5,7.5-10,9.7-9.7c2.1,0.3,3,2.2,2.9,3.7c-0.1,1.4-0.4,1.4-0.4,1.4s4.8-3.8,0.9-7.7s-7.2-1.1-12.2-5
	c-3.6-2.8-6.3-8.5-7.5-11.5c-1.3,3-4,8.8-7.6,11.5c-5,3.9-8.3,1.1-12.2,5c-3.9,3.9,0.9,7.7,0.9,7.7s-0.3,0-0.4-1.4
	c-0.1-1.4,0.8-3.3,2.9-3.7c2.1-0.3,8.1,0.1,9.7,9.7c1.6,9.5-2.6,14-2.6,14s0.6-1.9,0.9-4.7s-1.8-9.3-6.4-9.2
	c-4.7,0.1-5.1,5.4-5.1,5.4s0-0.7-0.4-2.4c-0.4-1.8-1.2-3.4-5.2-4.2s-6.4-5.2-6.4-5.2s1.1,2.8,1.4,9c0.3,6.2,3.7,6.8,3.7,6.8
	s-2.8-0.1-4.2,1.3c-1.4,1.4-2.8,6.4,2.9,10c5.7,3.6,10,1.1,10.1,1.7c0.1,0.6-1,1.6-2.9,1.8c-1.9,0.2-7.8,0.9-11.4-4.2
	c-3.7-5.1-1-9.4-1-9.4s-0.9,0.3-4-2.4c-3.1-2.8-1.6-7.2-1.6-7.2s0,0-2.9-0.3c-2.9-0.3-5.7-4.2-5.7-4.2l19,39.4H1453.9L1453.9,341.7z
	 M1453.9,343.8h-28.4v3.8h28.4h28.4v-3.8H1453.9z"/>
<linearGradient id="SVGID_24_" gradientUnits="userSpaceOnUse" x1="-119.001" y1="-2308.1492" x2="-93.7291" y2="-2308.1492" gradientTransform="matrix(0 -1 -1 0 -917.8491 234.8672)">
	<stop  offset="0" style="stop-color:#AC742C"/>
	<stop  offset="0.3146" style="stop-color:#F3E0A9"/>
	<stop  offset="0.5225" style="stop-color:#F1ECAF"/>
	<stop  offset="0.7472" style="stop-color:#F3E0A9"/>
	<stop  offset="1" style="stop-color:#AC742C"/>
</linearGradient>
<path class="st23" d="M1379,340.7c2.6-0.7,5.2-1.3,7.4-2.4c1.5,0.4,2.5,1.2,3.9,1.6c-1.3-0.9-2.6-1.8-3.8-2.9
	c-1.9,0.6-2.4-2-0.8-2.1c0.8-0.1,1.8,0.7,1.1,1.7c1.2,1,2.4,2,3.9,2.7c-1.1-1.6-3.2-3.3-2.9-6c0.2-2.2,1.6-3.7,3.4-4.6
	c3.3-0.3,6,1.4,5,4.8c-0.6,0.8-1.2,1.5-2.4,1.5c-1,0-2.1-1-2.3-1.9c-0.3-1.7,2-2.3,2.4-0.8c-0.4-0.1-0.4-0.5-0.8-0.5
	c-0.4,0-0.7,0.3-0.9,0.7c0.5,2.3,3.2,1.4,2.9-0.8c-0.2-1.8-3.2-2.3-4.5-1.1c-1.9,1.9-0.9,5.6,1.1,6.9c1.1,0.7,2.5,1,3,2.4
	c1.9,0.1,4.1,0,6.3,0c0.4,0.5,0.4,1.3,0.6,1.9c-2.2,0.2-4.7-0.2-6.8,0c-1.3,2.2-4.7,2.4-5.4,5.3c-0.2,0.9-0.3,1.5-0.1,2.4
	c0.2,1.1,1.3,2.7,2.5,3.1c2.3,0.7,4.4-1.6,3.5-3.9c-0.1-0.4-0.6-0.9-0.9-1.1c-0.9-0.4-2.2,0-2.3,0.9c0,0.3,0.2,1.1,0.8,1.2
	c0.4,0,0.5-0.3,0.9-0.3c-0.3,2.3-3.4,0.1-2.1-1.9c0.3-0.5,1.1-0.9,1.7-0.9c1.9-0.2,3.6,1.5,3.4,3.5c-0.2,1.7-1.6,3.5-3.3,3.8
	c-2.4,0.4-4.6-0.9-5.2-2.8c-0.4-1.2-0.6-2.9-0.3-4c0.3-1.3,1.1-2.3,1.6-3.4c-0.9,0.3-1.7,1.4-2.6,1.9c0,0.8-0.3,1.2-0.7,1.6
	c-2.4,0.3-1.6-3.3,0.3-2c1.5-1.1,2.7-2.4,4.2-3.5c-1.8,0.3-2.9,1.1-4.3,1.8C1384.2,342.2,1381.7,341.3,1379,340.7z M1387.4,340.7
	c-0.4-0.4-1.9-0.1-2.3,0C1385.8,340.7,1386.6,340.7,1387.4,340.7z M1388.7,340.6c-0.4,0.1-0.9-0.1-1.2,0.1
	C1387.9,340.8,1388.5,340.9,1388.7,340.6z"/>
<linearGradient id="SVGID_25_" gradientUnits="userSpaceOnUse" x1="-119.0072" y1="1885.4417" x2="-93.7353" y2="1885.4417" gradientTransform="matrix(0 -1 1 0 -368.8418 234.8653)">
	<stop  offset="0" style="stop-color:#AC742C"/>
	<stop  offset="0.3146" style="stop-color:#F3E0A9"/>
	<stop  offset="0.5225" style="stop-color:#F1ECAF"/>
	<stop  offset="0.7472" style="stop-color:#F3E0A9"/>
	<stop  offset="1" style="stop-color:#AC742C"/>
</linearGradient>
<path class="st24" d="M1520.4,343.4c-1.4-0.7-2.5-1.5-4.3-1.8c1.5,1,2.8,2.4,4.2,3.5c1.9-1.3,2.7,2.3,0.3,2
	c-0.4-0.3-0.8-0.8-0.7-1.6c-0.9-0.5-1.7-1.6-2.6-1.9c0.5,1.1,1.3,2.1,1.6,3.4c0.3,1.1,0.1,2.8-0.3,4c-0.6,1.9-2.8,3.2-5.2,2.8
	c-1.7-0.3-3.1-2.1-3.3-3.8c-0.2-2,1.4-3.7,3.4-3.5c0.5,0.1,1.4,0.5,1.7,0.9c1.2,2-1.8,4.2-2.1,1.9c0.3,0,0.5,0.4,0.9,0.3
	c0.6-0.1,0.8-0.8,0.8-1.2c-0.1-0.8-1.4-1.2-2.3-0.9c-0.4,0.2-0.8,0.7-0.9,1.1c-0.9,2.2,1.2,4.5,3.5,3.9c1.2-0.3,2.3-2,2.5-3.1
	c0.2-1,0.1-1.6-0.1-2.4c-0.8-3-4.1-3.1-5.4-5.3c-2.1-0.2-4.6,0.2-6.8,0c0.2-0.6,0.3-1.4,0.6-1.9c2.2,0,4.4,0.1,6.3,0
	c0.5-1.4,1.9-1.7,3-2.4c2-1.3,3-5.1,1.1-6.9c-1.3-1.2-4.3-0.7-4.5,1.1c-0.2,2.2,2.5,3.1,2.9,0.8c-0.2-0.4-0.4-0.7-0.9-0.7
	c-0.4,0-0.4,0.4-0.8,0.5c0.3-1.6,2.6-1,2.4,0.8c-0.1,0.9-1.3,1.8-2.3,1.9c-1.2,0.1-1.8-0.7-2.4-1.5c-1-3.4,1.6-5.1,5-4.8
	c1.8,0.9,3.2,2.4,3.4,4.6c0.3,2.7-1.8,4.4-2.9,6c1.5-0.7,2.7-1.7,3.9-2.7c-0.7-0.9,0.3-1.7,1.1-1.7c1.6,0.2,1.1,2.8-0.8,2.1
	c-1.1,1.1-2.5,2-3.8,2.9c1.5-0.4,2.5-1.2,3.9-1.6c2.1,1.1,4.8,1.7,7.4,2.4C1525,341.3,1522.5,342.2,1520.4,343.4z M1521.7,340.7
	c-0.4-0.1-1.9-0.4-2.3,0C1520.2,340.7,1520.9,340.7,1521.7,340.7z M1519.2,340.7c-0.2-0.2-0.8,0-1.2-0.1
	C1518.3,340.9,1518.9,340.8,1519.2,340.7z"/>
</svg>
